<?xml version="1.0" encoding="UTF-8"?>
<svg id="Layer_1" data-name="Layer 1" xmlns="http://www.w3.org/2000/svg" viewBox="0 0 621.57 731.76">
  <defs>
    <style>
      .cls-1 {
        fill: #019b16;
      }

      .cls-2 {
        fill: #071f0a;
      }
    </style>
  </defs>
  <path class="cls-1" d="m.21,710.69c22.5-165.9,157.75-283.41,325.43-278.53,3.69.07,7.38.15,11.06.23,3.82.6,7.64,1.2,11.46,1.81,116.44,12.83,220.7,99.46,256.16,210.89,8.6,26.39,11.88,54.51,17.23,81.92.25,1.26-3.02,4.64-4.65,4.64-204.92.2-409.84.19-614.76-.38-.73,0-1.43-8.32-2.15-12.75.07-2.61.14-5.21.21-7.81Z"/>
  <path class="cls-1" d="m328.11,363.98c.08,4.38-.03,8.76-.24,13.13-1.79,8.74-3.59,17.47-5.38,26.21-2.3-2.36-4.18-5.88-6.97-6.87-6.86-2.44-20.07-3-20.37-5.56-9.74-80.92-16.73-162.19-27.5-242.95-6.61-49.52-5.58-56.48,30.29-61.99,38.92-5.98,58.9,7.15,56.6,37.32-9.38,80.15-17.56,160.49-26.43,240.71Z"/>
  <path class="cls-2" d="m328.11,363.98c8.87-80.22,17.05-160.57,26.43-240.71,2.29-30.17-17.68-43.3-56.6-37.32-35.87,5.51-36.89,12.47-30.29,61.99,10.78,80.77,17.76,162.03,27.5,242.95.31,2.56,13.52,3.13,20.37,5.56,2.78.99,4.67,4.5,6.97,6.87-2.59,4.28-5.18,8.55-7.76,12.83-.16.36-.32.73-.48,1.1-2.82,2.1-7.97,6.19-8.13,6.01-6.71-7.83-14.7-15.28-18.76-24.44-3.43-7.75-2.25-17.54-3.11-26.42-.23-.69-.46-1.38-.7-2.07-1.08-1.05-2.16-2.1-3.23-3.15.18-2.13.7-4.3.47-6.39-4.33-40.7-8.73-81.38-13.25-122.06-.04-.4-2.56-1.1-2.78-.81-16.3,21.63-51.54,30.69-44.99,67.51-.36-2.21-.72-4.42-1.08-6.62-.13-.17-.26-.35-.39-.53-.92-3.6-1.85-7.2-2.77-10.79,0,0,.16-.12.16-.12,0,0-.2-.03-.2-.03-6.66-24.8,16.42-31.81,28.73-42.5,18.18-15.79,26.69-34.54,19.72-58.73-3.4-11.81-2.99-24.72-4.31-37.12-.22-.74-.44-1.49-.67-2.24-.02-18.22-.03-36.44-.05-54.65,1.11-3.31,1.39-6.83,2.07-10.24,1.22-4.13,2.77-8.17,4.15-12.25.68-2.37,1.38-4.76,2.07-7.13.78-1.35,1.14-2.89,1.63-4.35.13-.04.38-.1.38-.12-.03-.24-.11-.47-.17-.71.92-2.08,1.85-4.17,2.77-6.25,0,0,.28.06.28.06,0,0-.1-.26-.1-.26.88-1.92,1.43-3.94,2.06-5.95,1.06-2.38,2.26-4.68,3.1-7.15,0,0,.21-.05.21-.05,0,0-.19-.13-.19-.13,2.33-5.08,4.66-10.15,6.99-15.23,0,0,.2.1.2.1,0,0-.05-.21-.05-.21.31-.39.62-.78.92-1.16,1.05-1.63,2.11-3.27,3.16-4.92,8.33-5.38,16.66-10.76,24.98-16.14,2.95.63,5.48,2.24,7.87,4.02,7.46,13.69,15.32,27.18,22.56,40.98,4.34,12.17,8.68,24.34,13.02,36.5.44.8.89,1.61,1.34,2.42,2.55,5.29,4.75,10.7,6.35,16.35,0,5.24,0,10.49,0,15.73-.21.71-.41,1.42-.62,2.13-1.16,10.23-2.32,20.46-3.49,30.69-.2.7-.41,1.41-.61,2.12-.48,7.5-.96,14.99-1.45,22.48-5.32,29.58-7.02,58.88,23.09,78.52,9.39,6.11,16.88,15.95,23.25,25.42,2.13,3.17-1.91,10.5-3.12,15.92-.97-4.49-.47-10.33-3.15-13.23-13.17-14.27-27.18-27.76-40.93-41.49-.91-.91-2.14-1.5-3.21-2.24-.35,1.27-.89,2.52-1.02,3.81-2.57,26.08-5.32,52.14-7.52,78.25-.97,11.52-5.2,25.81-.14,34.06,7.63,12.46,21.88,21,33.76,30.68,5.56,4.53,12.13,7.8,18.24,11.65.46-6.68.91-13.37,1.4-20.05.11-1.51.4-3.01.61-4.51.19,4.77.39,9.54.58,14.3,1.65,3.53,2.09,7.43,3.3,11.1-1.62,6.64-2.9,13.37-4.75,19.95-4.23,1.06-10.64,4.43-12.36,2.82-18.02-16.92-35.26-34.67-52.85-52.06-1.3-1.29-3.58-1.58-5.41-2.33Zm25.67-287.65c-11.36-19.82-25.23-44.26-39.6-68.4-.72-1.21-7.89-.86-8.59.53-12.6,24.79-24.67,49.84-36.77,74.88-.34.71.26,1.88.43,2.83.86-.39,1.84-.64,2.56-1.2,16.8-12.69,63.75-12.03,79.47,1.86.26-1.07.51-2.15,2.51-10.49Zm-11.6,285.79c.88,1.26,1.82,3.23,3.3,4.6,14.26,13.13,28.6,26.19,43,39.17,1.37,1.24,3.37,1.78,5.07,2.65-.72-1.94-.9-4.44-2.24-5.72-15.29-14.56-30.76-28.95-46.2-43.35-.56-.53-1.38-.78-2.08-1.17-.21.95-.42,1.89-.85,3.82Zm-34.91,46.16c-2.17-2.78-4.06-5.19-5.95-7.6-.55.8-1.76,1.96-1.55,2.35,1.48,2.76,3.26,5.36,4.94,8.01.68-.73,1.36-1.47,2.56-2.77Z"/>
  <path class="cls-1" d="m219.76,305.41c-6.55-36.82,28.69-45.88,44.99-67.51.22-.3,2.74.41,2.78.81,4.52,40.67,8.92,81.36,13.25,122.06.22,2.09-.3,4.26-.47,6.39-10.02,9.92-20.03,19.83-30.05,29.74-6.27,4.37-12.49,8.8-18.81,13.08-2.03,1.38-4.33,2.36-6.5,3.53,1.03-2.92,1.22-6.73,3.23-8.61,11.45-10.71,23.39-20.89,34.99-31.45,2.28-2.08,3.77-5.02,5.62-7.57-2.53,1.79-4.99,3.68-7.59,5.36-13.72,8.92-27.48,17.79-41.23,26.67-.07-30.84-.15-61.67-.22-92.51Z"/>
  <path class="cls-1" d="m399.6,370.2c-1.2,8.13-1.32,16.38-2.01,24.56-6.11-3.84-12.69-7.12-18.24-11.65-11.87-9.67-26.12-18.22-33.76-30.68-5.06-8.25-.83-22.55.14-34.06,2.2-26.11,4.95-52.17,7.52-78.25.13-1.29.67-2.54,1.02-3.81,1.08.74,2.31,1.33,3.21,2.24,13.75,13.73,27.76,27.23,40.93,41.49,2.68,2.9,2.19,8.74,3.15,13.23-2.39,25.65-1.87,51.21-1.96,76.93Z"/>
  <path class="cls-2" d="m219.98,397.92c16.24-10.72,32.96-20.74,48.81-32.03-1.85,2.55-3.34,5.49-5.62,7.57-11.6,10.56-23.55,20.73-34.99,31.45-2,1.88-2.2,5.69-3.23,8.61,9.1-4.43,16.91-11.01,25.31-16.61-7.29,7.84-15.13,15.24-22.13,23.31-1.64.6-3.27,1.2-4.91,1.8-.21-3.48-.41-6.96-.61-10.44-1.25-1.76-3.07-2.92-4.53-4.51.63-3.05,1.26-6.1,1.9-9.15Z"/>
  <path class="cls-1" d="m353.78,76.33c-2,8.34-2.25,9.42-2.51,10.49-15.7-13.88-62.69-14.55-79.47-1.86-.72.57-1.7.81-2.56,1.2-.16-.95-.77-2.12-.43-2.83,12.1-25.04,24.17-50.09,36.77-74.88.7-1.38,7.87-1.74,8.59-.53,14.38,24.14,28.24,48.58,39.6,68.4Z"/>
  <path class="cls-1" d="m342.18,362.12c.43-1.93.64-2.88.85-3.82.7.38,1.51.64,2.08,1.17,15.44,14.4,30.91,28.79,46.2,43.35,1.34,1.28,1.52,3.78,2.24,5.72-1.71-.87-3.7-1.41-5.07-2.65-14.4-12.98-28.73-26.04-43-39.17-1.49-1.37-2.42-3.34-3.3-4.6Z"/>
  <path class="cls-1" d="m307.26,408.28c-1.2,1.3-1.88,2.03-2.56,2.77-1.68-2.65-3.46-5.25-4.94-8.01-.21-.39,1-1.55,1.55-2.35,1.89,2.41,3.77,4.82,5.95,7.6Z"/>
</svg>